<svg width="560" height="191" viewBox="0 0 560 191" fill="none" xmlns="http://www.w3.org/2000/svg">
<path fill-rule="evenodd" clip-rule="evenodd" d="M43.9744 68.4168C45.5698 66.8249 46.3675 64.8105 46.3675 62.3734V8.58008C46.3675 6.14286 45.5698 4.15325 43.9744 2.61133C42.4288 1.0694 40.4345 0.298437 37.9915 0.298437H0V92.6093C3.43334 91.646 6.89871 90.6993 10.3953 89.7712V70.7297H37.9915C40.4345 70.7297 42.4288 69.9585 43.9744 68.4168ZM10.3953 102.131C6.8968 103.076 3.43139 104.038 0 105.018V117.062H10.3953V102.131ZM555.219 91.8191L538.97 0H528.724L514.139 81.6238C528.271 84.7545 541.979 88.159 555.219 91.8191ZM473.686 73.6198C472.181 69.4458 470.673 65.2742 469.165 61.1051C469.812 61.1051 470.859 61.1546 472.306 61.2543C473.752 61.3038 474.848 61.3289 475.596 61.3289C483.175 61.3289 486.964 58.5186 486.964 52.898V8.58008C486.964 6.14286 486.191 4.15325 484.645 2.61133C483.1 1.0694 481.105 0.298437 478.662 0.298437H439.474V68.2365C442.958 68.7242 446.423 69.2273 449.87 69.746V9.47539H476.568V52.4504H458.021L456.6 54.5394L462.588 71.7414C466.31 72.3496 470.01 72.9757 473.686 73.6198ZM467.06 84.5909C470.851 85.2361 474.617 85.9005 478.356 86.5833C482.006 96.7284 485.647 106.888 489.282 117.062H478.363L467.06 84.5909ZM449.87 81.8196C446.424 81.2956 442.958 80.7858 439.474 80.2922V117.062H449.87V81.8196ZM412.749 64.8397C412.101 63.5266 411.103 62.4558 409.754 61.6273L400.93 55.957L409.156 51.0328C411.948 48.9437 413.344 46.3573 413.344 43.2734V8.58008C413.344 6.14286 412.571 4.15325 411.026 2.61133C409.48 1.0694 407.486 0.298437 405.043 0.298437H366.752V60.5398C370.23 60.7935 373.695 61.0627 377.147 61.3462V60.6574H392.628L396.364 63.0891C401.863 63.6352 407.325 64.219 412.749 64.8397ZM403.173 75.7912C406.679 76.1654 410.169 76.5552 413.643 76.9599V108.78C413.643 111.217 412.87 113.207 411.325 114.749C409.779 116.291 407.785 117.062 405.342 117.062H366.752V72.509C370.231 72.7662 373.696 73.0378 377.147 73.3243V107.885H403.173V75.7912ZM340.397 58.9129V0.298437H330.75L316.334 57.94C319.297 58.0302 322.253 58.131 325.2 58.2423L331.647 33.9473C330.949 39.0207 330.6 42.0797 330.6 43.1242V58.4585C333.876 58.5969 337.142 58.7485 340.397 58.9129ZM330.6 70.4068C333.876 70.5464 337.142 70.6998 340.397 70.8658V117.062H330.6V70.4068ZM322.061 70.0725C319.171 69.9699 316.274 69.8779 313.368 69.7956L311.754 76.2508C311.555 77.743 311.455 78.8621 311.455 79.6082C311.355 77.768 311.256 76.6489 311.156 76.2508L309.516 69.6929C306.584 69.6195 303.644 69.5562 300.698 69.5043L310.408 106.095H312.502L322.061 70.0725ZM297.516 57.513L291.263 33.9473C291.961 39.0704 292.31 42.1294 292.31 43.1242V57.4459C289.052 57.4109 285.786 57.3888 282.513 57.3795V0.298437H292.16L306.511 57.6809C303.52 57.6141 300.522 57.558 297.516 57.513ZM282.513 69.3169C285.787 69.3264 289.052 69.3485 292.31 69.3843V117.062H282.513V69.3169ZM256.083 57.5879V0.298437H245.688V57.8258C249.143 57.732 252.608 57.6526 256.083 57.5879ZM245.688 69.7675C249.143 69.6732 252.608 69.5926 256.083 69.5276V108.78C256.083 111.217 255.286 113.207 253.69 114.749C252.145 116.291 250.15 117.062 247.707 117.062H215.848C213.405 117.062 211.411 116.291 209.865 114.749C208.32 113.207 207.547 111.217 207.547 108.78V71.425C211 71.2191 214.465 71.0275 217.942 70.8514V107.885H245.688V69.7675ZM217.942 58.8986V0.298437H207.547V59.4668C211 59.2628 214.466 59.0734 217.942 58.8986ZM181.118 61.3289V0.298437H171.321V62.1747C174.574 61.8798 177.84 61.5975 181.118 61.3289ZM167.623 74.5067L171.321 84.6816V74.1617C174.573 73.8633 177.839 73.5786 181.118 73.307V117.062H173.938L158.766 75.3841C161.708 75.0809 164.66 74.7884 167.623 74.5067ZM163.413 62.9196L140.658 0.298437H132.88V66.3343C136.131 65.9242 139.398 65.5273 142.677 65.1435V31.1867L154.557 63.8209C157.498 63.5099 160.45 63.2091 163.413 62.9196ZM142.677 77.164C139.397 77.5514 136.131 77.9531 132.88 78.3679V117.062H142.677V77.164ZM80.8739 86.3696V107.885H108.919V117.062H70.4786V88.3148C73.9206 87.6505 77.3859 87.0017 80.8739 86.3696ZM80.8739 74.2387C77.3871 74.863 73.9218 75.5029 70.4786 76.1589V0.298437H108.47V9.47539H80.8739V53.0473H106.002V62.3734H80.8739V74.2387ZM512.036 93.3865C515.145 94.077 518.232 94.7808 521.297 95.4976L517.88 117.062H507.859V116.764L512.036 93.3865ZM546.97 101.945C550.524 102.901 554.043 103.875 557.528 104.867L559.686 117.062H549.365L546.97 101.945ZM35.9722 9.47539V61.4781H10.3953V9.47539H35.9722ZM402.874 9.47539V44.6164L392.479 51.6297H377.147V9.47539H402.874ZM533.66 18.6523L543.906 81.9211H523.34L533.66 18.6523Z" fill="white"/>
<path d="M110.075 180.331V148.816H118.269C120.337 148.816 122.124 149.172 123.63 149.885C125.136 150.599 126.298 151.617 127.115 152.941C127.944 154.266 128.359 155.857 128.359 157.716C128.359 159.563 127.944 161.186 127.115 162.587C126.298 163.975 125.136 165.057 123.63 165.834C122.124 166.598 120.337 166.98 118.269 166.98H112.985V180.331H110.075ZM112.985 164.535H117.58C119.163 164.535 120.535 164.261 121.697 163.714C122.871 163.167 123.777 162.389 124.415 161.384C125.054 160.365 125.372 159.168 125.372 157.793C125.372 156.392 125.054 155.202 124.415 154.221C123.777 153.228 122.871 152.476 121.697 151.967C120.535 151.445 119.163 151.184 117.58 151.184H112.985V164.535ZM136.197 180.331V160.772H138.992V163.657C139.617 162.511 140.421 161.644 141.404 161.059C142.4 160.46 143.548 160.161 144.85 160.161C145.425 160.161 146.005 160.225 146.593 160.352C147.192 160.479 147.709 160.645 148.143 160.849L146.995 163.198C146.612 163.007 146.171 162.861 145.674 162.759C145.188 162.657 144.722 162.606 144.276 162.606C143.37 162.606 142.515 162.835 141.711 163.294C140.906 163.752 140.249 164.351 139.739 165.089C139.241 165.815 138.992 166.591 138.992 167.419V180.331H136.197ZM155.18 180.331V160.772H157.976V180.331H155.18ZM156.597 156.857C156.253 156.857 155.94 156.774 155.659 156.609C155.391 156.443 155.174 156.22 155.008 155.94C154.842 155.66 154.759 155.355 154.759 155.023C154.759 154.692 154.842 154.393 155.008 154.126C155.174 153.846 155.391 153.622 155.659 153.457C155.94 153.292 156.253 153.209 156.597 153.209C156.929 153.209 157.229 153.292 157.497 153.457C157.765 153.622 157.982 153.839 158.148 154.107C158.327 154.374 158.416 154.68 158.416 155.023C158.416 155.355 158.327 155.66 158.148 155.94C157.982 156.22 157.765 156.443 157.497 156.609C157.229 156.774 156.929 156.857 156.597 156.857ZM173.237 180.942C171.617 180.942 170.187 180.553 168.949 179.777C167.711 178.987 166.747 177.874 166.058 176.434L167.551 174.83C168.164 176.078 168.962 177.052 169.944 177.752C170.927 178.44 172.019 178.784 173.218 178.784C174.022 178.784 174.757 178.618 175.42 178.287C176.097 177.956 176.633 177.485 177.028 176.874C177.437 176.25 177.641 175.511 177.641 174.658C177.641 173.882 177.449 173.27 177.067 172.825C176.697 172.379 176.148 171.997 175.42 171.679C174.706 171.347 173.812 170.978 172.74 170.571C171.91 170.239 171.106 169.864 170.327 169.444C169.549 169.024 168.905 168.495 168.394 167.859C167.896 167.209 167.647 166.388 167.647 165.395C167.647 164.389 167.915 163.497 168.451 162.721C168.987 161.931 169.728 161.314 170.672 160.868C171.617 160.41 172.689 160.18 173.888 160.18C174.986 160.18 176.014 160.416 176.971 160.887C177.941 161.358 178.809 162.026 179.575 162.893L178.292 164.516C177.118 162.976 175.656 162.205 173.908 162.205C172.835 162.205 171.961 162.485 171.285 163.045C170.621 163.606 170.289 164.338 170.289 165.242C170.289 165.891 170.5 166.433 170.921 166.865C171.342 167.298 171.891 167.668 172.567 167.973C173.257 168.279 173.997 168.584 174.788 168.89C175.937 169.323 176.932 169.756 177.775 170.189C178.63 170.621 179.294 171.175 179.766 171.85C180.239 172.512 180.474 173.417 180.474 174.563C180.474 175.874 180.168 177.007 179.556 177.962C178.943 178.917 178.088 179.656 176.99 180.178C175.905 180.687 174.654 180.942 173.237 180.942ZM198.38 180.942C196.338 180.942 194.494 180.503 192.847 179.624C191.213 178.746 189.918 177.523 188.961 175.957C188.003 174.391 187.525 172.589 187.525 170.552C187.525 168.501 188.003 166.7 188.961 165.146C189.918 163.58 191.213 162.358 192.847 161.479C194.481 160.601 196.325 160.161 198.38 160.161C200.422 160.161 202.26 160.601 203.894 161.479C205.54 162.358 206.842 163.58 207.799 165.146C208.757 166.7 209.235 168.501 209.235 170.552C209.235 172.589 208.757 174.391 207.799 175.957C206.842 177.523 205.54 178.746 203.894 179.624C202.26 180.503 200.422 180.942 198.38 180.942ZM198.38 178.459C199.912 178.459 201.278 178.122 202.477 177.447C203.677 176.772 204.621 175.842 205.311 174.658C206 173.461 206.344 172.092 206.344 170.552C206.344 169.011 206 167.648 205.311 166.464C204.621 165.268 203.677 164.332 202.477 163.657C201.278 162.981 199.912 162.644 198.38 162.644C196.848 162.644 195.482 162.981 194.283 163.657C193.083 164.332 192.139 165.268 191.449 166.464C190.76 167.648 190.416 169.011 190.416 170.552C190.416 172.08 190.76 173.442 191.449 174.639C192.139 175.836 193.083 176.772 194.283 177.447C195.482 178.122 196.848 178.459 198.38 178.459ZM217.818 180.331V160.772H220.614V163.446C221.15 162.53 221.979 161.753 223.103 161.116C224.226 160.479 225.597 160.161 227.219 160.161C228.737 160.161 230.046 160.473 231.144 161.097C232.241 161.721 233.083 162.632 233.671 163.828C234.258 165.013 234.551 166.445 234.551 168.126V180.331H231.756V168.661C231.756 166.636 231.284 165.096 230.34 164.039C229.395 162.969 228.061 162.434 226.338 162.434C225.138 162.434 224.111 162.676 223.256 163.16C222.413 163.631 221.762 164.261 221.303 165.051C220.843 165.827 220.614 166.674 220.614 167.591V180.331H217.818ZM253.527 180.942C251.472 180.942 249.634 180.49 248.013 179.586C246.405 178.682 245.141 177.453 244.222 175.9C243.303 174.333 242.844 172.576 242.844 170.628C242.844 169.164 243.106 167.801 243.629 166.541C244.165 165.268 244.905 164.153 245.85 163.198C246.794 162.243 247.892 161.498 249.143 160.963C250.394 160.429 251.727 160.161 253.144 160.161C255.084 160.161 256.807 160.588 258.313 161.441C259.832 162.281 261.032 163.446 261.912 164.936C262.806 166.426 263.278 168.145 263.329 170.093C263.329 170.246 263.323 170.373 263.31 170.475C263.31 170.564 263.298 170.679 263.272 170.819H245.62C245.62 172.347 245.964 173.697 246.654 174.868C247.343 176.04 248.288 176.963 249.487 177.638C250.7 178.3 252.085 178.631 253.642 178.631C255.122 178.631 256.45 178.325 257.624 177.714C258.811 177.09 259.801 176.199 260.591 175.04L262.659 176.148C261.728 177.663 260.457 178.841 258.849 179.681C257.254 180.522 255.48 180.942 253.527 180.942ZM245.773 168.718H260.535C260.368 167.496 259.941 166.419 259.251 165.49C258.562 164.548 257.688 163.809 256.628 163.275C255.582 162.74 254.433 162.472 253.182 162.472C251.894 162.472 250.719 162.74 249.659 163.275C248.601 163.797 247.726 164.529 247.037 165.471C246.361 166.4 245.939 167.483 245.773 168.718ZM271.754 180.331V160.772H274.549V163.657C275.175 162.511 275.979 161.644 276.961 161.059C277.957 160.46 279.106 160.161 280.407 160.161C280.982 160.161 281.563 160.225 282.15 160.352C282.75 160.479 283.267 160.645 283.7 160.849L282.552 163.198C282.169 163.007 281.728 162.861 281.231 162.759C280.746 162.657 280.28 162.606 279.833 162.606C278.927 162.606 278.072 162.835 277.268 163.294C276.464 163.752 275.807 164.351 275.296 165.089C274.798 165.815 274.549 166.591 274.549 167.419V180.331H271.754ZM311.868 180.942C309.826 180.942 307.981 180.503 306.335 179.624C304.702 178.746 303.406 177.523 302.448 175.957C301.491 174.391 301.013 172.589 301.013 170.552C301.013 168.501 301.491 166.7 302.448 165.146C303.406 163.58 304.702 162.358 306.335 161.479C307.969 160.601 309.813 160.161 311.868 160.161C313.911 160.161 315.748 160.601 317.382 161.479C319.028 162.358 320.33 163.58 321.287 165.146C322.245 166.7 322.723 168.501 322.723 170.552C322.723 172.589 322.245 174.391 321.287 175.957C320.33 177.523 319.028 178.746 317.382 179.624C315.748 180.503 313.911 180.942 311.868 180.942ZM311.868 178.459C313.4 178.459 314.765 178.122 315.965 177.447C317.165 176.772 318.109 175.842 318.799 174.658C319.488 173.461 319.832 172.092 319.832 170.552C319.832 169.011 319.488 167.648 318.799 166.464C318.109 165.268 317.165 164.332 315.965 163.657C314.765 162.981 313.4 162.644 311.868 162.644C310.336 162.644 308.971 162.981 307.771 163.657C306.571 164.332 305.627 165.268 304.937 166.464C304.248 167.648 303.904 169.011 303.904 170.552C303.904 172.08 304.248 173.442 304.937 174.639C305.627 175.836 306.571 176.772 307.771 177.447C308.971 178.122 310.336 178.459 311.868 178.459ZM331.597 180.331V162.873H329.625V160.772H331.597V153.763C331.597 152.299 331.807 151.057 332.228 150.038C332.65 149.019 333.262 148.243 334.066 147.708C334.87 147.173 335.859 146.906 337.034 146.906C337.761 146.906 338.437 147.008 339.063 147.211C339.688 147.402 340.237 147.682 340.71 148.052L339.733 150.038C339.146 149.58 338.406 149.351 337.512 149.351C336.798 149.351 336.211 149.529 335.751 149.885C335.292 150.229 334.947 150.726 334.717 151.375C334.5 152.025 334.392 152.795 334.392 153.686V160.772H339.389V162.873H334.392V180.331H331.597ZM359.764 180.331V148.816H375.75V151.375H361.525L362.674 150.516V164.974L361.525 163.255H374.87V165.815H361.525L362.674 164.096V180.331H359.764ZM391.597 180.942C389.759 180.942 388.1 180.496 386.62 179.605C385.151 178.701 383.984 177.466 383.116 175.9C382.26 174.333 381.833 172.545 381.833 170.533C381.833 168.546 382.254 166.776 383.097 165.223C383.952 163.657 385.113 162.422 386.581 161.517C388.061 160.613 389.734 160.161 391.597 160.161C393.371 160.161 394.98 160.575 396.422 161.403C397.864 162.231 398.962 163.377 399.715 164.841V160.772H402.51V180.331H399.715V176.205C398.873 177.683 397.743 178.841 396.326 179.681C394.91 180.522 393.333 180.942 391.597 180.942ZM392.287 178.516C393.754 178.516 395.049 178.179 396.173 177.504C397.309 176.816 398.203 175.874 398.853 174.677C399.504 173.467 399.83 172.092 399.83 170.552C399.83 168.998 399.504 167.623 398.853 166.426C398.215 165.229 397.328 164.293 396.192 163.618C395.056 162.931 393.754 162.587 392.287 162.587C390.818 162.587 389.517 162.931 388.381 163.618C387.245 164.293 386.352 165.229 385.701 166.426C385.05 167.623 384.724 168.998 384.724 170.552C384.724 172.092 385.05 173.467 385.701 174.677C386.352 175.874 387.245 176.816 388.381 177.504C389.517 178.179 390.818 178.516 392.287 178.516ZM417.287 180.942C415.819 180.942 414.676 180.452 413.86 179.471C413.056 178.478 412.654 177.084 412.654 175.288V162.873H410.662V160.772H412.654V153.457H415.449V160.772H420.331V162.873H415.449V175.136C415.449 176.218 415.659 177.046 416.081 177.619C416.502 178.192 417.102 178.478 417.88 178.478C418.634 178.478 419.297 178.268 419.871 177.848L420.58 180.063C420.146 180.331 419.635 180.541 419.048 180.694C418.461 180.859 417.874 180.942 417.287 180.942ZM437.793 180.942C435.738 180.942 433.9 180.49 432.279 179.586C430.671 178.682 429.408 177.453 428.489 175.9C427.57 174.333 427.11 172.576 427.11 170.628C427.11 169.164 427.372 167.801 427.895 166.541C428.431 165.268 429.171 164.153 430.116 163.198C431.061 162.243 432.158 161.498 433.409 160.963C434.66 160.429 435.993 160.161 437.41 160.161C439.351 160.161 441.074 160.588 442.579 161.441C444.099 162.281 445.298 163.446 446.179 164.936C447.072 166.426 447.545 168.145 447.596 170.093C447.596 170.246 447.589 170.373 447.576 170.475C447.576 170.564 447.564 170.679 447.538 170.819H429.886C429.886 172.347 430.231 173.697 430.92 174.868C431.609 176.04 432.554 176.963 433.754 177.638C434.966 178.3 436.351 178.631 437.908 178.631C439.389 178.631 440.716 178.325 441.89 177.714C443.077 177.09 444.066 176.199 444.858 175.04L446.925 176.148C445.994 177.663 444.724 178.841 443.116 179.681C441.52 180.522 439.746 180.942 437.793 180.942ZM430.039 168.718H444.8C444.635 167.496 444.207 166.419 443.518 165.49C442.828 164.548 441.954 163.809 440.895 163.275C439.848 162.74 438.7 162.472 437.449 162.472C436.159 162.472 434.985 162.74 433.926 163.275C432.866 163.797 431.992 164.529 431.303 165.471C430.626 166.4 430.205 167.483 430.039 168.718Z" fill="#DB8B51"/>
</svg>
