<svg width="48" height="49" viewBox="0 0 48 49" fill="none" xmlns="http://www.w3.org/2000/svg">
<path d="M23.9742 48.0456C37.243 48.0456 48 37.3608 48 24.181C48 11.001 37.243 0.316406 23.9742 0.316406C11.2414 0.316406 0.822857 10.155 0 22.5955C1.55479 25.1889 2.1615 26.7928 0.957133 31.0454C3.92517 40.8801 13.1071 48.0456 23.9742 48.0456Z" fill="white"/>
<path fill-rule="evenodd" clip-rule="evenodd" d="M22.6416 18.173V18.1729C22.6416 13.1516 26.7144 9.06677 31.7208 9.06677C36.7292 9.06677 40.8 13.1516 40.8 18.1729C40.8 23.1938 36.7292 27.2824 31.7208 27.2824C31.6531 27.2824 31.5833 27.2803 31.5156 27.2783L23.1463 33.2673C23.171 34.1918 23.0007 35.1184 22.6354 36.0019C21.232 39.3816 17.342 40.9903 13.9682 39.5788C11.9062 38.718 10.5085 36.9285 10.0526 34.8883L0.972574 31.1367C-0.255769 27.5179 0.0265062 22.6726 0.0311521 22.5928L0.0312094 22.5918L12.8753 27.8864C13.2247 27.6563 13.5971 27.457 13.9945 27.2947C14.8961 26.9228 15.8469 26.7564 16.7944 26.7995L22.6437 18.2913C22.6416 18.2535 22.6416 18.2133 22.6416 18.173ZM14.5501 38.1776C17.1551 39.2645 20.1519 38.0256 21.2382 35.4143C21.7634 34.1528 21.7655 32.7557 21.2464 31.4901C20.7273 30.2245 19.7477 29.2342 18.4853 28.7082C17.2331 28.1864 15.8928 28.2028 14.7139 28.6507L17.7692 29.9183C19.6893 30.7196 20.598 32.9303 19.797 34.8554C18.9984 36.7785 16.7944 37.6907 14.8733 36.8894L11.9177 35.6629C12.4411 36.7579 13.3484 37.6763 14.5501 38.1776ZM31.7208 24.2416C28.3866 24.2416 25.6721 21.5194 25.6721 18.1729C25.6721 14.8292 28.3866 12.1061 31.7208 12.1061C35.057 12.1061 37.7715 14.8292 37.7715 18.1729C37.7715 21.5194 35.057 24.2416 31.7208 24.2416ZM31.7311 13.6044C29.2238 13.6044 27.1884 15.6462 27.1884 18.1637C27.1884 20.6813 29.2238 22.7213 31.7311 22.7213C34.2404 22.7213 36.2758 20.6813 36.2758 18.1637C36.2758 15.6462 34.2404 13.6044 31.7311 13.6044Z" fill="black"/>
</svg>
