<svg width="73" height="74" viewBox="0 0 73 74" fill="none" xmlns="http://www.w3.org/2000/svg">
<path d="M36.4608 73.4214C56.6405 73.4214 73 57.0794 73 36.9214C73 16.763 56.6405 0.421387 36.4608 0.421387C17.0963 0.421387 1.25143 15.4691 0 34.4964C2.36457 38.4628 3.28727 40.916 1.45564 47.4202C5.96953 62.462 19.9338 73.4214 36.4608 73.4214Z" fill="white"/>
<path fill-rule="evenodd" clip-rule="evenodd" d="M34.4341 27.7322V27.732C34.4341 20.0521 40.6282 13.8044 48.2421 13.8044C55.859 13.8044 62.05 20.0521 62.05 27.732C62.05 35.4112 55.859 41.6645 48.2421 41.6645C48.1391 41.6645 48.033 41.6613 47.93 41.6582L35.2017 50.8181C35.2392 52.2322 34.9802 53.6494 34.4247 55.0006C32.2904 60.1698 26.3743 62.6302 21.2434 60.4714C18.1073 59.1548 15.9817 56.4178 15.2883 53.2975L1.47912 47.5595C-0.388982 42.0248 0.0403115 34.614 0.0473772 34.492L0.0474643 34.4905L19.5811 42.5883C20.1125 42.2364 20.6789 41.9316 21.2833 41.6833C22.6544 41.1146 24.1004 40.86 25.5415 40.926L34.4372 27.9129C34.4341 27.8552 34.4341 27.7937 34.4341 27.7322ZM22.1283 58.3283C26.09 59.9906 30.6478 58.0958 32.2997 54.1019C33.0985 52.1725 33.1017 50.0357 32.3122 48.1C31.5227 46.1643 30.033 44.6497 28.113 43.8452C26.2086 43.0471 24.1703 43.0722 22.3773 43.7573L27.024 45.6961C29.9441 46.9216 31.3261 50.3028 30.1079 53.2471C28.8934 56.1884 25.5415 57.5836 22.6198 56.3581L18.1248 54.4821C18.9208 56.157 20.3007 57.5616 22.1283 58.3283ZM48.2421 37.0139C43.1713 37.0139 39.043 32.8503 39.043 27.7321C39.043 22.6179 43.1713 18.453 48.2421 18.453C53.3159 18.453 57.4442 22.6179 57.4442 27.7321C57.4442 32.8503 53.3159 37.0139 48.2421 37.0139ZM48.2577 20.7446C44.4445 20.7446 41.349 23.8675 41.349 27.7178C41.349 31.5684 44.4445 34.6885 48.2577 34.6885C52.074 34.6885 55.1694 31.5684 55.1694 27.7178C55.1694 23.8675 52.074 20.7446 48.2577 20.7446Z" fill="black"/>
</svg>
