<svg width="74" height="74" viewBox="0 0 74 74" fill="none" xmlns="http://www.w3.org/2000/svg">
<path fill-rule="evenodd" clip-rule="evenodd" d="M48.5528 0.838135H26.1427C5.69039 0.838135 0.847763 5.65467 0.847763 25.9968V48.2861C0.847763 68.6283 5.69039 73.4448 26.1427 73.4448H48.5528C69.0051 73.4448 73.8478 68.6283 73.8478 48.2861V25.9968C73.8478 5.65467 69.0051 0.838135 48.5528 0.838135ZM59.0108 23.896C60.6079 23.896 60.9685 24.7158 60.6079 25.8431C60.0451 28.4266 55.3715 35.2797 53.9239 37.4023C53.6488 37.8056 53.4903 38.0382 53.4985 38.0382C52.9318 38.9605 52.7257 39.3704 53.4985 40.3952C53.7778 40.7741 54.3702 41.3522 55.0472 42.0129C55.7435 42.6925 56.5293 43.4595 57.1562 44.1869C59.423 46.7489 61.1745 48.901 61.6382 50.3869C62.0503 51.8729 61.3291 52.6415 59.7836 52.6415H54.4773C53.0711 52.6415 52.3462 51.8383 50.8014 50.1264C50.1391 49.3924 49.3259 48.4914 48.2437 47.415C45.1012 44.3919 43.7102 43.982 42.9374 43.982C41.8556 43.982 41.5465 44.2382 41.5465 45.7753V50.5406C41.5465 51.8216 41.1343 52.5902 37.7342 52.5902C32.1188 52.5902 25.8852 49.2084 21.5062 42.9059C14.912 33.6828 13.1089 26.7142 13.1089 25.3307C13.1089 24.5621 13.3665 23.8448 14.912 23.8448H20.2698C21.6093 23.8448 22.1244 24.4084 22.6396 25.8943C25.267 33.4266 29.646 40.0365 31.4491 40.0365C32.1188 40.0365 32.4279 39.7291 32.4279 38.0382V30.2497C32.3007 28.0359 31.5259 27.0714 30.9514 26.3562C30.595 25.9126 30.3157 25.5649 30.3157 25.0745C30.3157 24.4596 30.8309 23.8448 31.6551 23.8448H40.0009C41.1343 23.8448 41.5465 24.4596 41.5465 25.7919V36.296C41.5465 37.4233 42.0101 37.8332 42.3707 37.8332C43.0405 37.8332 43.6072 37.4233 44.8436 36.1935C48.6559 31.9406 51.3863 25.3819 51.3863 25.3819C51.7469 24.6133 52.3651 23.896 53.7045 23.896H59.0108Z" fill="white"/>
</svg>
